<svg width="50" height="50" viewBox="0 0 50 50" fill="none" xmlns="http://www.w3.org/2000/svg">
<g clip-path="url(#clip0_31_517)">
<path d="M24.9999 12.5C27.3011 12.5 29.1666 10.6345 29.1666 8.33329C29.1666 6.03211 27.3011 4.16663 24.9999 4.16663C22.6987 4.16663 20.8333 6.03211 20.8333 8.33329C20.8333 10.6345 22.6987 12.5 24.9999 12.5Z" fill="#D50093"/>
<path d="M33.1041 16.8958C32.2916 16.0833 30.8958 14.5833 28.1874 14.5833H22.8958C17.1666 14.5625 12.4999 9.89579 12.4999 4.16663H8.33325C8.33325 10.75 12.7291 16.3333 18.7499 18.1458V45.8333H22.9166V33.3333H27.0833V45.8333H31.2499V20.9375L39.4791 29.1666L42.4166 26.2291L33.1041 16.8958Z" fill="#D50093"/>
</g>
<defs>
<clipPath id="clip0_31_517">
<rect width="50" height="50" fill="white"/>
</clipPath>
</defs>
</svg>
