<!DOCTYPE svg PUBLIC "-//W3C//DTD SVG 1.1//EN" "http://www.w3.org/Graphics/SVG/1.1/DTD/svg11.dtd">
<!-- Uploaded to: SVG Repo, www.svgrepo.com, Transformed by: SVG Repo Mixer Tools -->
<svg height="800px" width="800px" version="1.1" id="Layer_1" xmlns="http://www.w3.org/2000/svg" xmlns:xlink="http://www.w3.org/1999/xlink" viewBox="0 0 448.08 448.08" xml:space="preserve" fill="#000000">
<g id="SVGRepo_bgCarrier" stroke-width="0"/>
<g id="SVGRepo_tracerCarrier" stroke-linecap="round" stroke-linejoin="round"/>
<g id="SVGRepo_iconCarrier"> <g transform="translate(0 -1020.36)"> <g shape-rendering="auto" image-rendering="auto" color-rendering="auto" color-interpolation="sRGB"> <path style="fill:#83AAC7;" d="M176.132,1028.383c-0.677-0.005-1.378,0-2.031,0.256l-95.906,24.563 c-1.85,0.432-3.475,1.52-4.594,3.063L1.445,1159.139c-2.195,3.145-1.86,7.406,0.813,10.156l48.063,48.906 c3.126,3.139,8.217,3.139,11.344,0l18.437-18.438v192.594h15.938v52H80.101v8.063c-0.016,4.445,3.585,8.049,8.031,8.031 l272.125-0.16c4.396,0,7.984-3.512,8.031-7.906l-0.064-127.781h-16.031v-52h16l-0.032-72.75l18.188,18.188 c3.139,3.217,8.329,3.217,11.469,0l47.938-48.906c2.739-2.77,3.105-7.111,0.843-10.281l-72.062-102.625 c-1.07-1.568-2.643-2.691-4.469-3.188l-96.031-24.437c-0.659-0.192-1.354-0.256-2.031-0.256h-6.375 c-2.879-0.011-5.534,1.504-6.969,4c-7.177,12.67-20.361,20.427-34.594,20.438c-14.233-0.012-27.323-7.768-34.5-20.438 c-1.451-2.533-4.142-4.055-7.063-4h-6.375L176.132,1028.383z"/> <path style="fill:#7209B7;" d="M181.744,1044.629l0.874,1.312c10.5,13.323,24.314,20.104,41.456,20.118 c17.147-0.014,31.074-6.787,41.575-20.118l1.43-1.629l96.126,23.511l66.496,94.844l-37.677,38.385l-26.221-26.34 c-5.037-5.115-13.747-1.52-13.701,5.668l0.242,263.977h-256.3v-263.977c-0.058-7.045-8.534-10.58-13.582-5.668l-26.457,26.457 l-37.559-38.387l66.496-94.842c30.742-7.834,66.078-15.486,96.801-23.316L181.744,1044.629z"/> <path style="fill:#FFFFFF;" d="M266.13,1236.372c-1.876,0.053-3.674,0.764-5.08,2.008l-31.89,27.992 c-3.445,2.768-3.994,7.803-1.226,11.248c2.767,3.445,7.803,3.994,11.248,1.227c0.169-0.137,0.333-0.279,0.49-0.428l18.661-16.299 v110.197c0.004,4.436,3.603,8.027,8.038,8.025c4.43-0.004,8.021-3.596,8.024-8.025v-127.914c0.019-4.418-3.547-8.016-7.966-8.035 C266.33,1236.368,266.23,1236.368,266.13,1236.372L266.13,1236.372z"/> </g> <g transform="translate(0 1020.36)"> <path style="fill:#7209B7;" d="M19.852,140.348l-1.406,2.031l37.563,38.406l3.875-3.875L19.852,140.348z M96.04,209.941v35.813 l195.031,178.219h39.219L96.04,209.941z"/> <path style="fill:#7209B7;" d="M96.04,295.223v35.813l101.719,92.938h39.219L96.04,295.223z"/> </g> <g shape-rendering="auto" image-rendering="auto" color-rendering="auto" color-interpolation="sRGB"> <path style="fill:#FFFFFF;" d="M186.169,1236.372c-1.876,0.053-3.674,0.764-5.08,2.008l-31.89,27.992 c-3.445,2.768-3.994,7.803-1.227,11.248s7.803,3.994,11.248,1.227c0.169-0.137,0.333-0.279,0.49-0.428l18.661-16.416v110.314 c-0.37,4.402,2.899,8.273,7.302,8.643c4.403,0.371,8.273-2.898,8.643-7.303c0.037-0.445,0.037-0.895,0-1.34v-127.914 c0.018-4.418-3.55-8.016-7.969-8.033C186.289,1236.37,186.229,1236.37,186.169,1236.372L186.169,1236.372z"/> <path style="fill:#83AAC7;" d="M275.448,1119.319c-4.117,0.412-7.241,3.895-7.205,8.031v38.74 c-0.002,1.318,0.322,2.617,0.943,3.779c0,0,2.812,5.395,7.086,10.865c2.135,2.738,4.608,5.6,7.678,8.031 c3.072,2.43,6.945,4.723,12.047,4.723c5.104,0,8.977-2.293,12.047-4.723c3.072-2.43,5.539-5.291,7.678-8.031 c4.275-5.473,7.086-10.865,7.086-10.865c0.621-1.162,0.945-2.461,0.943-3.779v-38.74c0.017-4.396-3.517-7.982-7.913-8.031h-39.685 c-0.236-0.01-0.472-0.01-0.708,0H275.448z"/> <path style="fill:#A20000;" d="M284.188,1135.381h23.622v28.346c-0.629,1.104-1.983,3.574-4.723,7.088 c-1.645,2.111-3.441,4.111-4.959,5.314c-1.518,1.199-2.558,1.297-2.123,1.297c0.423,0-0.484-0.16-2.008-1.297 c-1.518-1.199-3.435-3.205-5.08-5.314c-2.745-3.514-4.1-5.98-4.723-7.088v-28.346H284.188z"/> <path style="fill:#A20000;" d="M295.99,1135.391v42c-0.007,0,0.032,0,0.032,0c-0.435,0,0.576,0,2.094-1.279 c1.518-1.199,3.324-3.201,4.969-5.313c2.739-3.514,4.09-5.986,4.719-7.094v-28.344h-11.812L295.99,1135.391z"/> </g> <g> <path style="fill:#83AAC7;" d="M352.179,1288.633h16v20h-16V1288.633z"/> <path style="fill:#83AAC7;" d="M96.043,1408.362h-16v20h16V1408.362z"/> </g> </g> </g>
</svg>