<svg width="522" height="471" viewBox="0 0 522 471" fill="none" xmlns="http://www.w3.org/2000/svg">
<g filter="url(#filter0_i_35_985)">
<g filter="url(#filter1_d_35_985)">
<path d="M276.4 140.752H427.943C436.648 140.752 442.531 149.634 439.136 157.649L378.628 300.479C376.724 304.974 372.316 307.893 367.435 307.893H154.403C149.522 307.893 145.114 304.974 143.21 300.479L82.7025 157.649C79.3069 149.634 85.1903 140.752 93.8953 140.752H276.4Z" fill="#FF621F"/>
<path d="M427.943 139.874H276.4H93.8953C84.5614 139.874 78.2528 149.398 81.8938 157.992L142.402 300.822C144.443 305.641 149.169 308.772 154.403 308.772H367.435C372.669 308.772 377.395 305.641 379.437 300.822L439.944 157.992C443.585 149.398 437.277 139.874 427.943 139.874Z" stroke="#804A4A" stroke-width="1.75661"/>
</g>
<g style="mix-blend-mode:lighten" filter="url(#filter2_i_35_985)">
<line x1="183.762" y1="287.867" x2="210.503" y2="157.131" stroke="white" stroke-width="3.03893" stroke-linecap="round"/>
</g>
<g style="mix-blend-mode:lighten" filter="url(#filter3_i_35_985)">
<line x1="244.54" y1="287.867" x2="271.282" y2="157.131" stroke="white" stroke-width="3.03893" stroke-linecap="round"/>
</g>
<g style="mix-blend-mode:lighten" filter="url(#filter4_i_35_985)">
<line x1="305.319" y1="287.867" x2="332.06" y2="157.131" stroke="white" stroke-width="3.03893" stroke-linecap="round"/>
</g>
<g style="mix-blend-mode:darken" opacity="0.3" filter="url(#filter5_b_35_985)">
<path d="M275.798 4L319.142 53.7215L362.486 103.443" stroke="#F27039" stroke-width="6.14813" stroke-linecap="round"/>
</g>
<g style="mix-blend-mode:darken" opacity="0.3" filter="url(#filter6_d_35_985)">
<path d="M159.861 103.443L246.55 3.99995" stroke="#F27039" stroke-width="6.14813" stroke-linecap="round"/>
</g>
</g>
<path d="M195.928 367.012C195.333 367.431 194.57 367.762 193.639 368.005C192.709 368.24 191.569 368.357 190.219 368.357C188.878 368.357 187.524 368.278 186.157 368.118V365.679C187.381 365.956 188.613 366.094 189.854 366.094C191.095 366.094 192.026 366.027 192.646 365.893C193.266 365.75 193.765 365.566 194.142 365.339C194.838 364.92 195.186 364.375 195.186 363.705C195.186 363.185 195.052 362.782 194.784 362.497C194.356 362.053 193.74 361.647 192.935 361.278L189.716 359.806C188.609 359.287 187.825 358.805 187.364 358.36C186.375 357.405 185.88 356.298 185.88 355.04C185.88 353.749 186.442 352.706 187.566 351.909C188.798 351.037 190.55 350.601 192.822 350.601C194.289 350.601 195.63 350.66 196.846 350.777V353.179C195.815 352.945 194.662 352.827 193.388 352.827C192.122 352.827 191.2 352.894 190.621 353.028C190.051 353.154 189.603 353.318 189.276 353.519C188.681 353.888 188.383 354.374 188.383 354.978C188.383 355.564 188.572 356.051 188.949 356.436C189.284 356.763 189.896 357.14 190.785 357.568L194.092 359.14C195.19 359.66 195.957 360.15 196.393 360.611C196.838 361.072 197.165 361.538 197.374 362.007C197.584 362.468 197.688 363.026 197.688 363.679C197.688 364.325 197.546 364.937 197.261 365.515C196.976 366.085 196.532 366.584 195.928 367.012ZM213.797 357.216C212.556 357.216 211.449 357.639 210.477 358.486V368.232H207.962V349.52H210.477V356.65C211.835 355.585 213.239 355.053 214.689 355.053C216.24 355.053 217.376 355.514 218.097 356.436C218.852 357.409 219.229 358.976 219.229 361.139V368.232H216.714V361.139C216.714 359.06 216.148 357.819 215.016 357.417C214.656 357.283 214.249 357.216 213.797 357.216ZM229.087 361.718C229.087 359.681 229.737 358.029 231.036 356.763C232.252 355.581 233.757 354.99 235.551 354.99C237.311 354.99 238.783 355.581 239.965 356.763C241.222 358.021 241.851 359.672 241.851 361.718C241.851 363.755 241.218 365.398 239.952 366.647C238.753 367.838 237.282 368.433 235.538 368.433C233.769 368.433 232.269 367.838 231.036 366.647C229.737 365.398 229.087 363.755 229.087 361.718ZM231.703 361.718C231.703 363.864 232.39 365.323 233.765 366.094C234.251 366.362 234.834 366.496 235.513 366.496C236.192 366.496 236.766 366.362 237.236 366.094C237.705 365.817 238.091 365.457 238.393 365.012C238.955 364.157 239.235 363.059 239.235 361.718C239.235 359.588 238.561 358.13 237.211 357.342C236.741 357.065 236.18 356.927 235.526 356.927C234.872 356.927 234.302 357.065 233.816 357.342C233.338 357.61 232.944 357.966 232.633 358.411C232.013 359.282 231.703 360.385 231.703 361.718ZM254.602 373.262H252.087V355.254H254.35L254.451 356.738C254.954 356.067 255.725 355.569 256.764 355.242C257.167 355.116 257.573 355.053 257.984 355.053C258.403 355.053 258.814 355.099 259.217 355.191C259.619 355.275 260.017 355.418 260.411 355.619C260.805 355.812 261.183 356.072 261.543 356.399C261.903 356.717 262.222 357.115 262.499 357.593C263.102 358.624 263.404 359.903 263.404 361.429C263.404 363.759 262.599 365.541 260.99 366.773C259.565 367.871 257.829 368.42 255.784 368.42H255.155C254.954 368.42 254.769 368.416 254.602 368.408V373.262ZM254.602 366.371C254.836 366.438 255.297 366.471 255.985 366.471C256.672 366.471 257.318 366.375 257.921 366.182C258.525 365.989 259.036 365.691 259.456 365.289C260.344 364.434 260.788 363.147 260.788 361.429C260.788 359.811 260.403 358.616 259.632 357.845C259.062 357.275 258.366 356.99 257.544 356.99C256.513 356.99 255.658 357.371 254.979 358.134C254.803 358.327 254.677 358.499 254.602 358.649V366.371ZM274.432 349.52H276.947V363.315C276.947 364.975 277.324 365.951 278.079 366.245C278.33 366.345 278.598 366.396 278.883 366.396C279.169 366.396 279.424 366.362 279.651 366.295V368.232L279.185 368.282C279.034 368.299 278.888 368.307 278.745 368.307C277.136 368.307 275.974 367.779 275.262 366.723C274.709 365.893 274.432 364.761 274.432 363.327V349.52ZM292.376 351.482C292.376 351.96 292.217 352.328 291.898 352.588C291.588 352.84 291.198 352.966 290.729 352.966C290.259 352.966 289.869 352.84 289.559 352.588C289.257 352.328 289.106 351.96 289.106 351.482C289.106 350.995 289.257 350.627 289.559 350.375C289.869 350.124 290.259 349.998 290.729 349.998C291.198 349.998 291.588 350.124 291.898 350.375C292.217 350.627 292.376 350.995 292.376 351.482ZM289.433 355.254H291.948V368.232H289.433V355.254ZM308.71 357.216C307.461 357.216 306.351 357.639 305.378 358.486V368.232H302.863V355.254H305.189L305.366 356.663C306.732 355.59 308.145 355.053 309.603 355.053C311.146 355.053 312.278 355.514 312.999 356.436C313.753 357.409 314.13 358.976 314.13 361.139V368.232H311.615V361.139C311.615 359.06 311.054 357.819 309.93 357.417C309.57 357.283 309.163 357.216 308.71 357.216ZM332.238 373.186C331.508 373.371 330.57 373.463 329.421 373.463C328.281 373.463 327.447 373.379 326.919 373.211V370.973C327.581 371.258 328.39 371.401 329.346 371.401C330.31 371.409 331.018 371.346 331.471 371.212C331.923 371.078 332.28 370.86 332.54 370.558C333.009 370.013 333.244 369.028 333.244 367.603V366.936C332.607 367.574 331.768 368.018 330.729 368.269C330.31 368.37 329.891 368.42 329.471 368.42C329.052 368.42 328.641 368.374 328.239 368.282C327.845 368.19 327.451 368.043 327.057 367.842C326.663 367.632 326.286 367.364 325.925 367.037C325.565 366.702 325.246 366.287 324.969 365.792C324.349 364.719 324.039 363.399 324.039 361.831C324.022 360.381 324.441 359.106 325.296 358.008C326.034 357.052 327.049 356.31 328.34 355.782C329.513 355.296 330.783 355.053 332.15 355.053C333.516 355.053 334.719 355.12 335.759 355.254V367.603C335.759 370.738 334.585 372.599 332.238 373.186ZM333.244 357.09C332.707 357.023 332.179 356.99 331.659 356.99C331.14 356.99 330.557 357.086 329.911 357.279C329.266 357.472 328.7 357.765 328.214 358.159C327.149 359.023 326.617 360.246 326.617 361.831C326.617 363.55 327.032 364.803 327.862 365.591C328.482 366.186 329.241 366.484 330.138 366.484C331.219 366.484 332.129 366.102 332.867 365.339C333.043 365.147 333.168 364.975 333.244 364.824V357.09Z" fill="white"/>
<defs>
<filter id="filter0_i_35_985" x="75.5441" y="0.925842" width="370.75" height="316.228" filterUnits="userSpaceOnUse" color-interpolation-filters="sRGB">
<feFlood flood-opacity="0" result="BackgroundImageFix"/>
<feBlend mode="normal" in="SourceGraphic" in2="BackgroundImageFix" result="shape"/>
<feColorMatrix in="SourceAlpha" type="matrix" values="0 0 0 0 0 0 0 0 0 0 0 0 0 0 0 0 0 0 127 0" result="hardAlpha"/>
<feOffset dy="7.50354"/>
<feGaussianBlur stdDeviation="3.75177"/>
<feComposite in2="hardAlpha" operator="arithmetic" k2="-1" k3="1"/>
<feColorMatrix type="matrix" values="0 0 0 0 0 0 0 0 0 0 0 0 0 0 0 0 0 0 0.25 0"/>
<feBlend mode="normal" in2="shape" result="effect1_innerShadow_35_985"/>
</filter>
<filter id="filter1_d_35_985" x="66.7554" y="138.995" width="388.327" height="197.08" filterUnits="userSpaceOnUse" color-interpolation-filters="sRGB">
<feFlood flood-opacity="0" result="BackgroundImageFix"/>
<feColorMatrix in="SourceAlpha" type="matrix" values="0 0 0 0 0 0 0 0 0 0 0 0 0 0 0 0 0 0 127 0" result="hardAlpha"/>
<feOffset dy="13.2128"/>
<feGaussianBlur stdDeviation="6.60638"/>
<feComposite in2="hardAlpha" operator="out"/>
<feColorMatrix type="matrix" values="0 0 0 0 0 0 0 0 0 0 0 0 0 0 0 0 0 0 0.25 0"/>
<feBlend mode="normal" in2="BackgroundImageFix" result="effect1_dropShadow_35_985"/>
<feBlend mode="normal" in="SourceGraphic" in2="effect1_dropShadow_35_985" result="shape"/>
</filter>
<filter id="filter2_i_35_985" x="182.242" y="155.611" width="29.7809" height="145.931" filterUnits="userSpaceOnUse" color-interpolation-filters="sRGB">
<feFlood flood-opacity="0" result="BackgroundImageFix"/>
<feBlend mode="normal" in="SourceGraphic" in2="BackgroundImageFix" result="shape"/>
<feColorMatrix in="SourceAlpha" type="matrix" values="0 0 0 0 0 0 0 0 0 0 0 0 0 0 0 0 0 0 127 0" result="hardAlpha"/>
<feOffset dy="12.1557"/>
<feGaussianBlur stdDeviation="6.07787"/>
<feComposite in2="hardAlpha" operator="arithmetic" k2="-1" k3="1"/>
<feColorMatrix type="matrix" values="0 0 0 0 0 0 0 0 0 0 0 0 0 0 0 0 0 0 0.25 0"/>
<feBlend mode="normal" in2="shape" result="effect1_innerShadow_35_985"/>
</filter>
<filter id="filter3_i_35_985" x="243.021" y="155.611" width="29.7809" height="145.931" filterUnits="userSpaceOnUse" color-interpolation-filters="sRGB">
<feFlood flood-opacity="0" result="BackgroundImageFix"/>
<feBlend mode="normal" in="SourceGraphic" in2="BackgroundImageFix" result="shape"/>
<feColorMatrix in="SourceAlpha" type="matrix" values="0 0 0 0 0 0 0 0 0 0 0 0 0 0 0 0 0 0 127 0" result="hardAlpha"/>
<feOffset dy="12.1557"/>
<feGaussianBlur stdDeviation="6.07787"/>
<feComposite in2="hardAlpha" operator="arithmetic" k2="-1" k3="1"/>
<feColorMatrix type="matrix" values="0 0 0 0 0 0 0 0 0 0 0 0 0 0 0 0 0 0 0.25 0"/>
<feBlend mode="normal" in2="shape" result="effect1_innerShadow_35_985"/>
</filter>
<filter id="filter4_i_35_985" x="303.799" y="155.611" width="29.7809" height="145.931" filterUnits="userSpaceOnUse" color-interpolation-filters="sRGB">
<feFlood flood-opacity="0" result="BackgroundImageFix"/>
<feBlend mode="normal" in="SourceGraphic" in2="BackgroundImageFix" result="shape"/>
<feColorMatrix in="SourceAlpha" type="matrix" values="0 0 0 0 0 0 0 0 0 0 0 0 0 0 0 0 0 0 127 0" result="hardAlpha"/>
<feOffset dy="12.1557"/>
<feGaussianBlur stdDeviation="6.07787"/>
<feComposite in2="hardAlpha" operator="arithmetic" k2="-1" k3="1"/>
<feColorMatrix type="matrix" values="0 0 0 0 0 0 0 0 0 0 0 0 0 0 0 0 0 0 0.25 0"/>
<feBlend mode="normal" in2="shape" result="effect1_innerShadow_35_985"/>
</filter>
<filter id="filter5_b_35_985" x="260.568" y="-11.2298" width="117.148" height="129.903" filterUnits="userSpaceOnUse" color-interpolation-filters="sRGB">
<feFlood flood-opacity="0" result="BackgroundImageFix"/>
<feGaussianBlur in="BackgroundImageFix" stdDeviation="6.07787"/>
<feComposite in2="SourceAlpha" operator="in" result="effect1_backgroundBlur_35_985"/>
<feBlend mode="normal" in="SourceGraphic" in2="effect1_backgroundBlur_35_985" result="shape"/>
</filter>
<filter id="filter6_d_35_985" x="144.632" y="0.925842" width="117.148" height="129.903" filterUnits="userSpaceOnUse" color-interpolation-filters="sRGB">
<feFlood flood-opacity="0" result="BackgroundImageFix"/>
<feColorMatrix in="SourceAlpha" type="matrix" values="0 0 0 0 0 0 0 0 0 0 0 0 0 0 0 0 0 0 127 0" result="hardAlpha"/>
<feOffset dy="12.1557"/>
<feGaussianBlur stdDeviation="6.07787"/>
<feComposite in2="hardAlpha" operator="out"/>
<feColorMatrix type="matrix" values="0 0 0 0 0 0 0 0 0 0 0 0 0 0 0 0 0 0 0.25 0"/>
<feBlend mode="normal" in2="BackgroundImageFix" result="effect1_dropShadow_35_985"/>
<feBlend mode="normal" in="SourceGraphic" in2="effect1_dropShadow_35_985" result="shape"/>
</filter>
</defs>
</svg>
